<svg version="1.1" viewBox="0.0 0.0 500.0 500.0" fill="none" stroke="none" stroke-linecap="square" stroke-miterlimit="10" xmlns:xlink="http://www.w3.org/1999/xlink" xmlns="http://www.w3.org/2000/svg"><clipPath id="p1.0"><path d="m0 0l500.0 0l0 500.0l-500.0 0l0 -500.0z" clip-rule="nonzero"/></clipPath><g clip-path="url(#p1.0)"><path fill="#000000" fill-opacity="0.0" d="m0 0l500.0 0l0 500.0l-500.0 0z" fill-rule="evenodd"/><path fill="#000000" fill-opacity="0.0" d="m25.193491 467.9452l213.14026 -442.4342" fill-rule="evenodd"/><path stroke="#a6a6a6" stroke-width="18.0" stroke-linejoin="round" stroke-linecap="round" d="m25.193491 467.9452l213.14026 -442.4342" fill-rule="evenodd"/><path fill="#000000" fill-opacity="0.0" d="m22.325249 469.46393l207.40347 -434.60733" fill-rule="evenodd"/><path stroke="#000000" stroke-width="14.0" stroke-linejoin="round" stroke-linecap="round" d="m22.325249 469.46393l207.40347 -434.60733" fill-rule="evenodd"/><path fill="#000000" fill-opacity="0.0" d="m256.24902 42.000107l205.16348 410.8806" fill-rule="evenodd"/><path stroke="#000000" stroke-width="62.0" stroke-linejoin="round" stroke-linecap="round" stroke-opacity="0.24705882" d="m256.24902 42.000107l205.16348 410.8806" fill-rule="evenodd"/><path fill="#000000" fill-opacity="0.0" d="m456.5454 456.47812l-205.16347 -410.88052" fill-rule="evenodd"/><path stroke="#000000" stroke-width="62.0" stroke-linejoin="round" stroke-linecap="round" d="m456.5454 456.47812l-205.16347 -410.88052" fill-rule="evenodd"/><path fill="#000000" fill-opacity="0.0" d="m281.95706 369.7642l-174.58069 0" fill-rule="evenodd"/><path stroke="#a6a6a6" stroke-width="26.0" stroke-linejoin="round" stroke-linecap="round" d="m281.95706 369.7642l-174.58069 0" fill-rule="evenodd"/><path fill="#000000" fill-opacity="0.0" d="m107.37638 374.968l174.58069 0" fill-rule="evenodd"/><path stroke="#585151" stroke-width="26.0" stroke-linejoin="round" stroke-linecap="round" d="m107.37638 374.968l174.58069 0" fill-rule="evenodd"/><path fill="#000000" fill-opacity="0.0" d="m282.95706 438.57785l-203.02151 0" fill-rule="evenodd"/><path stroke="#a6a6a6" stroke-width="26.0" stroke-linejoin="round" stroke-linecap="round" d="m282.95706 438.57785l-203.02151 0" fill-rule="evenodd"/><path fill="#000000" fill-opacity="0.0" d="m77.637375 443.71317l204.31969 0" fill-rule="evenodd"/><path stroke="#585151" stroke-width="26.0" stroke-linejoin="round" stroke-linecap="round" d="m77.637375 443.71317l204.31969 0" fill-rule="evenodd"/><path fill="#000000" fill-opacity="0.0" d="m463.14026 467.9451l-213.14026 -425.9451" fill-rule="evenodd"/><path stroke="#000000" stroke-width="33.0" stroke-linejoin="round" stroke-linecap="round" d="m463.14026 467.9451l-213.14026 -425.9451" fill-rule="evenodd"/><path fill="#000000" fill-opacity="0.0" d="m282.95706 301.00778l-140.64925 0" fill-rule="evenodd"/><path stroke="#a6a6a6" stroke-width="26.0" stroke-linejoin="round" stroke-linecap="round" d="m282.95706 301.00778l-140.64925 0" fill-rule="evenodd"/><path fill="#000000" fill-opacity="0.0" d="m140.00966 306.16556l141.9474 0" fill-rule="evenodd"/><path stroke="#585151" stroke-width="26.0" stroke-linejoin="round" stroke-linecap="round" d="m140.00966 306.16556l141.9474 0" fill-rule="evenodd"/><defs><linearGradient id="p1.1" gradientUnits="userSpaceOnUse" gradientTransform="matrix(5.696312682991928 0.0 0.0 5.696312682991928 0.0 0.0)" spreadMethod="pad" x1="40.64977094141135" y1="42.131525059668355" x2="46.34608362440328" y2="42.131525059668355"><stop offset="0.0" stop-color="#5de0e6"/><stop offset="1.0" stop-color="#004aad"/></linearGradient></defs><path fill="url(#p1.1)" d="m247.7778 207.54636c-8.960281 0 -16.223999 7.2637024 -16.223999 16.223984c0 8.960281 7.2637177 16.223984 16.223999 16.223984c8.960266 0 16.223969 -7.2637024 16.223969 -16.223984c0 -8.960281 -7.2637024 -16.223984 -16.223969 -16.223984z" fill-rule="evenodd"/><path fill="#000000" fill-opacity="0.0" d="m234.59581 209.82785l26.363968 0l0 27.124481l-26.363968 0z" fill-rule="evenodd"/></g></svg>